#!OML:ASF F:\VICON\USERDATA\INSTALL\rory3\rory3.ASF
:FULLY-SPECIFIED
:DEGREES
151
root 1.212 17.0729 -16.3749 16.1697 0.993706 0.707312
lowerback 19.5587 -0.422296 -0.104037
upperback 2.59674 -0.258731 3.49228
thorax -8.12349 -0.0644154 3.92115
lowerneck -20.091 -4.28234 -9.4651
upperneck 16.7682 -4.15764 5.19616
head 8.86875 -2.00595 2.76106
rclavicle 9.14409e-015 2.14687e-014
rhumerus -22.9169 -1.85356 -83.6056
rradius 45.401
rwrist 0.792265
rhand -13.0419 11.1118
rfingers 7.12502
rthumb 13.0528 -18.4598
lclavicle 9.14409e-015 2.14687e-014
lhumerus -22.8756 -1.20301 90.6595
lradius 38.3163
lwrist -4.73645
lhand -17.8236 23.3267
lfingers 7.12502
lthumb 8.44053 53.1381
rfemur -39.778 -0.405757 18.5032
rtibia 45.9221
rfoot -16.8635 -6.89781
rtoes -1.98205
lfemur -40.4747 1.92578 -21.2241
ltibia 44.4435
lfoot -17.1328 -2.74676
ltoes 1.31284
152
root 1.21168 17.0772 -16.3625 16.1563 0.95112 0.665482
lowerback 19.5191 -0.382638 -0.116531
upperback 2.59952 -0.213517 3.45796
thorax -8.10204 -0.0433057 3.87786
lowerneck -19.785 -4.13244 -9.18182
upperneck 16.4641 -3.99882 4.91732
head 8.68604 -1.9441 2.64133
rclavicle -1.70955e-014 2.14687e-014
rhumerus -23.0069 -2.01661 -83.6067
rradius 45.5806
rwrist 1.5511
rhand -13.24 11.3674
rfingers 7.12502
rthumb 12.8618 -18.2163
lclavicle -1.70955e-014 2.14687e-014
lhumerus -22.8205 -1.29836 90.5467
lradius 38.2312
lwrist -4.80245
lhand -17.972 23.5188
lfingers 7.12502
lthumb 8.29737 53.3359
rfemur -39.6627 -0.368035 18.5383
rtibia 45.8451
rfoot -16.8693 -6.8474
rtoes -1.65047
lfemur -40.343 1.92879 -21.1634
ltibia 44.3838
lfoot -17.1802 -2.71302
ltoes 1.43574
153
root 1.21087 17.0805 -16.3549 16.1575 0.882966 0.762738
lowerback 19.5509 -0.346587 -0.184496
upperback 2.65197 -0.191266 3.34934
thorax -8.06343 -0.0333189 3.79171
lowerneck -20.0163 -4.1509 -9.03873
upperneck 16.5588 -4.0484 4.92765
head 8.75924 -1.95491 2.61348
rclavicle 2.98177e-014 -1.90833e-014
rhumerus -22.8448 -2.22552 -83.7067
rradius 45.6552
rwrist 2.06035
rhand -12.3043 9.96975
rfingers 7.12502
rthumb 13.7637 -19.555
lclavicle 2.98177e-014 -1.90833e-014
lhumerus -22.7216 -1.45105 90.4106
lradius 38.2215
lwrist -4.80865
lhand -18.2209 23.8593
lfingers 7.12502
lthumb 8.05717 53.6857
rfemur -39.6041 -0.360329 18.4202
rtibia 45.7548
rfoot -16.8706 -6.777
rtoes -1.53408
lfemur -40.2381 1.90867 -21.2643
ltibia 44.2929
lfoot -17.1986 -2.6286
ltoes 1.49025
154
root 1.20819 17.0828 -16.3481 16.2474 0.951354 0.883999
lowerback 19.5394 -0.347342 -0.245842
upperback 2.7074 -0.212748 3.27967
thorax -7.99504 -0.0441734 3.75469
lowerneck -20.5385 -4.17348 -8.87762
upperneck 16.7364 -4.06638 4.85369
head 8.90718 -1.95568 2.55576
rclavicle 6.75868e-015 1.11319e-014
rhumerus -22.6463 -2.50013 -83.6988
rradius 46.0344
rwrist 3.36643
rhand -11.639 8.68512
rfingers 7.12502
rthumb 14.4048 -20.795
lclavicle 6.75868e-015 1.11319e-014
lhumerus -22.6955 -1.52586 90.3022
lradius 38.4191
lwrist -5.08809
lhand -17.9805 24.253
lfingers 7.12502
lthumb 8.28912 54.0704
rfemur -39.6294 -0.451642 18.3178
rtibia 45.6345
rfoot -16.8315 -6.82667
rtoes -2.01793
lfemur -40.2665 1.82463 -21.3888
ltibia 44.1669
lfoot -17.1425 -2.59601
ltoes 1.25092
155
root 1.2077 17.0942 -16.3386 16.314 1.16594 0.817925
lowerback 19.4307 -0.400527 -0.0863026
upperback 2.78122 -0.251564 3.29079
thorax -7.85371 -0.0696845 3.68081
lowerneck -20.7372 -4.21392 -8.78917
upperneck 16.6248 -4.12398 4.83961
head 8.90505 -1.9747 2.52584
rclavicle 7.55382e-015 -2.8625e-014
rhumerus -22.6019 -2.47923 -83.7403
rradius 46.3377
rwrist 3.20183
rhand -12.0353 8.80287
rfingers 7.12502
rthumb 14.023 -20.7041
lclavicle 7.55382e-015 -2.8625e-014
lhumerus -22.5642 -1.66064 90.2237
lradius 38.3321
lwrist -5.42933
lhand -17.7535 24.3918
lfingers 7.12502
lthumb 8.50818 54.2004
rfemur -39.5336 -0.619538 18.4507
rtibia 45.448
rfoot -16.7968 -6.88545
rtoes -2.34038
lfemur -40.267 1.69483 -21.2884
ltibia 44.0336
lfoot -17.0938 -2.6102
ltoes 0.908463
156
root 1.20544 17.1079 -16.3284 16.3445 1.22328 0.809435
lowerback 19.3671 -0.424627 -0.111831
upperback 2.77298 -0.288326 3.30104
thorax -7.82569 -0.0866917 3.71472
lowerneck -20.4743 -4.20335 -8.80832
upperneck 16.3401 -4.13477 4.90455
head 8.76414 -1.97487 2.55055
rclavicle -1.19271e-014 -2.3059e-014
rhumerus -22.8034 -2.29202 -83.8072
rradius 46.4473
rwrist 2.36588
rhand -11.1336 8.2794
rfingers 7.12502
rthumb 14.8918 -21.1653
lclavicle -1.19271e-014 -2.3059e-014
lhumerus -22.5379 -1.70254 90.1535
lradius 38.1318
lwrist -5.42032
lhand -17.8495 24.0775
lfingers 7.12502
lthumb 8.41561 53.8899
rfemur -39.394 -0.63791 18.4895
rtibia 45.2307
rfoot -16.7567 -6.99684
rtoes -2.88362
lfemur -40.1364 1.60496 -21.2323
ltibia 43.8754
lfoot -17.0869 -2.63525
ltoes 1.07619
157
root 1.20089 17.1135 -16.319 16.3229 1.16147 0.792183
lowerback 19.4064 -0.401907 -0.215924
upperback 2.77014 -0.277425 3.32511
thorax -7.85008 -0.0777963 3.79908
lowerneck -20.2777 -4.12602 -8.78863
upperneck 16.1671 -4.03566 4.84303
head 8.66175 -1.93483 2.5407
rclavicle -1.07344e-014 -1.03368e-014
rhumerus -23.177 -2.14124 -83.8007
rradius 46.887
rwrist 2.39794
rhand -10.8049 8.34229
rfingers 7.12502
rthumb 15.2084 -21.0787
lclavicle -1.07344e-014 -1.03368e-014
lhumerus -22.5438 -1.6162 90.1073
lradius 38.0926
lwrist -5.40518
lhand -17.8713 23.9563
lfingers 7.12502
lthumb 8.39457 53.7695
rfemur -39.2364 -0.550809 18.5172
rtibia 44.9899
rfoot -16.6004 -7.09673
rtoes -3.40499
lfemur -39.9368 1.59402 -21.1815
ltibia 43.6935
lfoot -17.1145 -2.53192
ltoes 0.928514
158
root 1.20023 17.1205 -16.309 16.2928 1.15976 0.826199
lowerback 19.448 -0.399546 -0.282795
upperback 2.76502 -0.286989 3.32928
thorax -7.87713 -0.0799382 3.8457
lowerneck -20.0391 -4.04918 -8.80809
upperneck 16.0057 -3.93122 4.78664
head 8.55703 -1.89463 2.53998
rclavicle -7.15625e-015 -7.95139e-015
rhumerus -23.3682 -1.95822 -83.7912
rradius 47.1093
rwrist 2.57134
rhand -11.5352 8.86159
rfingers 7.12502
rthumb 14.5049 -20.6114
lclavicle -7.15625e-015 -7.95139e-015
lhumerus -22.7756 -1.62217 90.0861
lradius 38.5002
lwrist -5.21382
lhand -17.8136 23.819
lfingers 7.12502
lthumb 8.4502 53.63
rfemur -39.0502 -0.592465 18.5003
rtibia 44.7613
rfoot -16.5004 -7.09691
rtoes -3.2846
lfemur -39.7906 1.53853 -21.2097
ltibia 43.5017
lfoot -17.0981 -2.43013
ltoes 0.380625
159
root 1.20222 17.1319 -16.2932 16.2618 1.239 0.851824
lowerback 19.4476 -0.425405 -0.196666
upperback 2.74455 -0.307858 3.26492
thorax -7.89868 -0.0928752 3.7317
lowerneck -19.7651 -4.05774 -8.78336
upperneck 15.8619 -3.98472 4.84713
head 8.46531 -1.91403 2.55106
rclavicle 4.37326e-015 2.38542e-014
rhumerus -23.3459 -2.04693 -83.8696
rradius 46.8495
rwrist 2.52928
rhand -10.882 8.39171
rfingers 7.12502
rthumb 15.1342 -21.0349
lclavicle 4.37326e-015 2.38542e-014
lhumerus -23.0189 -1.74164 90.0003
lradius 38.8131
lwrist -4.99769
lhand -18.738 21.4586
lfingers 7.12502
lthumb 7.55803 51.3035
rfemur -38.796 -0.738334 18.5059
rtibia 44.5068
rfoot -16.4017 -7.06403
rtoes -3.22168
lfemur -39.6334 1.4113 -21.2252
ltibia 43.3148
lfoot -17.063 -2.37322
ltoes 0.0323404
160
root 1.19977 17.14 -16.2811 16.3359 1.37808 0.768686
lowerback 19.4272 -0.446357 -0.00288725
upperback 2.67598 -0.297473 3.21741
thorax -7.96456 -0.0928451 3.56697
lowerneck -19.5729 -4.14574 -8.81587
upperneck 15.746 -4.15301 5.05441
head 8.41031 -1.9751 2.60564
rclavicle -7.95139e-016 -4.77083e-015
rhumerus -23.4787 -1.96968 -84.086
rradius 46.3905
rwrist 0.450482
rhand -11.8688 10.1972
rfingers 7.12502
rthumb 14.1834 -19.2986
lclavicle -7.95139e-016 -4.77083e-015
lhumerus -23.1253 -1.95867 89.8927
lradius 38.843
lwrist -4.96724
lhand -17.7866 24.0077
lfingers 7.12502
lthumb 8.47631 53.8176
rfemur -38.6785 -0.733531 18.6192
rtibia 44.2532
rfoot -16.2677 -7.14529
rtoes -3.05967
lfemur -39.5762 1.24313 -21.0584
ltibia 43.1243
lfoot -17.0174 -2.35498
ltoes 0.125678
161
root 1.1958 17.1482 -16.2754 16.3859 1.38785 0.652188
lowerback 19.4618 -0.449225 0.0814529
upperback 2.63971 -0.280891 3.23023
thorax -8.02439 -0.086253 3.53
lowerneck -19.3458 -4.17514 -8.90111
upperneck 15.6014 -4.2111 5.17797
head 8.33123 -1.99682 2.65515
rclavicle 9.93923e-015 2.46493e-014
rhumerus -23.7954 -1.70443 -84.2326
rradius 46.6382
rwrist -0.582352
rhand -12.7491 10.9017
rfingers 7.12502
rthumb 13.335 -18.6516
lclavicle 9.93923e-015 2.46493e-014
lhumerus -23.1574 -2.00976 89.8244
lradius 38.9436
lwrist -4.83482
lhand -17.8669 24.2086
lfingers 7.12502
lthumb 8.39883 54.0217
rfemur -38.5746 -0.554615 18.7241
rtibia 43.9843
rfoot -16.1913 -7.28395
rtoes -3.11479
lfemur -39.4903 1.12625 -20.8513
ltibia 42.9516
lfoot -16.9889 -2.22857
ltoes 0.307224
